<svg xmlns="http://www.w3.org/2000/svg" viewBox="0 0 1440 320"><path fill="#0099ff" fill-opacity="1" d="M0,192L16,202.7C32,213,64,235,96,240C128,245,160,235,192,218.7C224,203,256,181,288,186.7C320,192,352,224,384,224C416,224,448,192,480,192C512,192,544,224,576,208C608,192,640,128,672,90.7C704,53,736,43,768,69.3C800,96,832,160,864,181.3C896,203,928,181,960,186.7C992,192,1024,224,1056,229.3C1088,235,1120,213,1152,192C1184,171,1216,149,1248,154.7C1280,160,1312,192,1344,197.3C1376,203,1408,181,1424,170.7L1440,160L1440,0L1424,0C1408,0,1376,0,1344,0C1312,0,1280,0,1248,0C1216,0,1184,0,1152,0C1120,0,1088,0,1056,0C1024,0,992,0,960,0C928,0,896,0,864,0C832,0,800,0,768,0C736,0,704,0,672,0C640,0,608,0,576,0C544,0,512,0,480,0C448,0,416,0,384,0C352,0,320,0,288,0C256,0,224,0,192,0C160,0,128,0,96,0C64,0,32,0,16,0L0,0Z"></path></svg>